<svg width="16" height="16" viewBox="0 0 16 16" fill="none" xmlns="http://www.w3.org/2000/svg">
<path d="M12.0003 8C12.0003 8.368 11.7017 8.66667 11.3337 8.66667C10.9658 8.66667 10.6671 8.368 10.6671 8C10.6671 7.632 10.9658 7.33333 11.3337 7.33333C11.7017 7.33333 12.0003 7.632 12.0003 8ZM4.66761 3.33333C5.03558 3.33333 5.33422 3.03533 5.33422 2.66667C5.33422 1.93133 5.93217 1.33333 6.66744 1.33333C7.40272 1.33333 8.00067 1.93133 8.00067 2.66667C8.00067 3.03533 8.29931 3.33333 8.66728 3.33333C9.03525 3.33333 9.33389 3.03533 9.33389 2.66667C9.33389 1.196 8.13799 0 6.66744 0C5.1969 0 4.001 1.196 4.001 2.66667C4.001 3.03533 4.29964 3.33333 4.66761 3.33333ZM16 8.66667V10C16 10.7373 15.5014 11.186 14.9548 11.3027C14.5141 12.4053 13.7069 13.3367 12.6669 13.9387V14C12.6669 15.1027 11.7697 16 10.6671 16C9.79785 16 9.05658 15.4427 8.78127 14.6667H7.2194C6.94409 15.4427 6.20282 16 5.33356 16C4.23098 16 3.33372 15.1027 3.33372 14V13.9473C1.5772 12.9347 0.545954 11.0293 0.67861 8.98C0.720607 8.328 0.885259 7.70867 1.14857 7.14267C0.470627 6.822 0 6.132 0 5.33333C0 4.23067 0.897258 3.33333 1.99983 3.33333C2.3678 3.33333 2.66644 3.63133 2.66644 4C2.66644 4.36867 2.3678 4.66667 1.99983 4.66667C1.63186 4.66667 1.33322 4.96533 1.33322 5.33333C1.33322 5.66067 1.57054 5.93333 1.88184 5.98933C2.89576 4.774 4.4503 4 6.17682 4H9.75185C10.2405 3.01467 11.1531 2.32533 12.3696 2.036C12.7636 1.94333 13.1716 2.034 13.4902 2.28533C13.8135 2.54133 13.9995 2.924 13.9995 3.336V5.81267C14.4048 6.27333 14.7288 6.8 14.9541 7.364C15.5014 7.48067 15.9993 7.92933 15.9993 8.66667H16ZM14.6668 8.66667H14.4708C14.1762 8.66667 13.9162 8.47267 13.8322 8.19C13.6495 7.57667 13.3122 7.006 12.8569 6.53867C12.7349 6.414 12.6669 6.24667 12.6669 6.07333V3.336C12.017 3.49067 11.1571 3.88933 10.8244 4.89267C10.7304 5.17467 10.4558 5.36867 10.1645 5.34867C10.1192 5.34667 6.17815 5.334 6.17815 5.334C3.97633 5.334 2.14515 6.97333 2.00983 9.06667C1.90317 10.7127 2.7971 12.2347 4.28764 12.9433C4.52029 13.054 4.66761 13.2887 4.66761 13.5453V14.0007C4.66761 14.3687 4.96692 14.6673 5.33422 14.6673C5.70152 14.6673 6.00083 14.3687 6.00083 14.0007C6.00083 13.6327 6.29947 13.334 6.66744 13.334H9.33389C9.70186 13.334 10.0005 13.632 10.0005 14.0007C10.0005 14.3693 10.2998 14.6673 10.6671 14.6673C11.0344 14.6673 11.3337 14.3687 11.3337 14.0007V13.538C11.3337 13.2813 11.481 13.0473 11.713 12.9367C12.7409 12.446 13.5129 11.5493 13.8322 10.478C13.9162 10.1953 14.1762 10.0013 14.4708 10.0013H14.6668V8.668V8.66667Z" fill="black"/>
</svg>
