<svg width="21" height="21" viewBox="0 0 21 21" fill="none" xmlns="http://www.w3.org/2000/svg">
<path d="M20.1011 7.6064L13.9015 1.4068C12.0209 -0.468934 8.97698 -0.468934 7.09641 1.4068L0.896806 7.6064C0.320679 8.17945 -0.00224388 8.95916 1.17377e-05 9.7718V18.8516C0.00193927 20.0368 0.962752 20.9968 2.14794 20.9977H18.8499C20.0351 20.9968 20.9959 20.0368 20.9978 18.8516V9.7718C21.0001 8.95916 20.6772 8.17945 20.1011 7.6064ZM18.3731 18.373H13.9986V15.589C13.9986 13.7442 12.503 12.2486 10.6582 12.2486H10.3397C8.49485 12.2486 6.99929 13.7442 6.99929 15.589V18.373H2.62474V9.7718C2.62502 9.65578 2.67087 9.54455 2.75249 9.46208L8.95208 3.26248C9.80615 2.40817 11.1911 2.40801 12.0454 3.26207C12.0455 3.26219 12.0456 3.26236 12.0458 3.26248L18.2454 9.46208C18.3269 9.54455 18.3728 9.65578 18.3731 9.7718V18.373H18.3731Z" fill="white"/>
</svg>
