<svg width="17" height="17" viewBox="0 0 17 17" fill="none" xmlns="http://www.w3.org/2000/svg">
<path d="M16.3827 8.56421L15.2397 9.70723C14.5817 10.3595 13.586 9.36305 14.2383 8.70584L15.154 7.79015H9.20654C8.28022 7.7859 8.28093 6.3773 9.20654 6.37376H15.154L14.2383 5.45806C13.586 4.80086 14.5824 3.80442 15.2397 4.45667L16.3827 5.5997C17.1999 6.41696 17.1999 7.74695 16.3827 8.56491V8.56421ZM14.1639 11.3311V13.4557C14.1639 15.4082 12.5754 16.9967 10.6229 16.9967H2.83278C1.2705 16.9967 0 15.7262 0 14.1639V3.54098C0 1.58848 1.58848 0 3.54098 0H10.6229C12.239 0 13.649 1.09204 14.0527 2.65573C14.1504 3.03462 13.9217 3.42058 13.5428 3.51831C13.1703 3.61746 12.778 3.38871 12.6802 3.00912C12.4387 2.07076 11.5932 1.41568 10.6229 1.41568H4.24917V11.3304H12.7475C12.7518 10.4041 14.1604 10.4048 14.1639 11.3304V11.3311ZM1.41639 3.54098V11.7249C1.83493 11.4813 2.31438 11.3311 2.83278 11.3311V1.5467C2.01057 1.83989 1.41639 2.61891 1.41639 3.54098ZM12.7475 13.4557V12.7475H2.83278C0.970936 12.7808 0.972352 15.547 2.83278 15.5803H10.6229C11.7943 15.5803 12.7475 14.6271 12.7475 13.4557Z" fill="black"/>
</svg>
