<svg width="19" height="19" viewBox="0 0 19 19" fill="none" xmlns="http://www.w3.org/2000/svg">
<path d="M0.697243 7.79905L4.61739 3.87891L6.29712 5.55863L3.56172 8.29085H13.7644V10.6667H3.56172L6.29395 13.3989L4.61422 15.0787L0.694075 11.1585C0.249092 10.7125 -0.000552177 10.1081 4.19617e-05 9.47812C0.000636101 8.84813 0.251419 8.24417 0.697243 7.79905Z" fill="black"/>
<path d="M11.09 16.2104C11.09 16.3154 11.1317 16.4161 11.206 16.4904C11.2802 16.5647 11.381 16.6064 11.486 16.6064H16.2282C16.3332 16.6064 16.4339 16.5647 16.5082 16.4904C16.5824 16.4161 16.6242 16.3154 16.6242 16.2104V2.77182C16.6242 2.6668 16.5824 2.56609 16.5082 2.49183C16.4339 2.41757 16.3332 2.37585 16.2282 2.37585H11.486C11.381 2.37585 11.2802 2.41757 11.206 2.49183C11.1317 2.56609 11.09 2.6668 11.09 2.77182V6.58427H8.71416V2.77182C8.71521 2.03701 9.00758 1.3326 9.52717 0.813005C10.0468 0.293414 10.7512 0.00104749 11.486 0H16.2282C16.963 0.00104749 17.6674 0.293414 18.187 0.813005C18.7066 1.3326 18.999 2.03701 19 2.77182V16.2104C19 16.9455 18.708 17.6506 18.1882 18.1704C17.6683 18.6902 16.9633 18.9822 16.2282 18.9822H11.486C10.7509 18.9822 10.0458 18.6902 9.52601 18.1704C9.00619 17.6506 8.71416 16.9455 8.71416 16.2104V12.3956H11.09V16.2104Z" fill="black"/>
</svg>
