<svg width="17" height="14" viewBox="0 0 17 14" fill="none" xmlns="http://www.w3.org/2000/svg">
<path d="M13.3 14H3.5C1.5701 14 0 12.4299 0 10.5V3.5C0 1.5701 1.5701 0 3.5 0H13.3C15.2299 0 16.8 1.5701 16.8 3.5V10.5C16.8 12.4299 15.2299 14 13.3 14ZM3.5 1.4C2.3422 1.4 1.4 2.3422 1.4 3.5V10.5C1.4 11.6578 2.3422 12.6 3.5 12.6H13.3C14.4578 12.6 15.4 11.6578 15.4 10.5V3.5C15.4 2.3422 14.4578 1.4 13.3 1.4H3.5ZM12.6 7.7H9.8C9.0279 7.7 8.4 7.0721 8.4 6.3V4.9C8.4 4.1279 9.0279 3.5 9.8 3.5H12.6C13.3721 3.5 14 4.1279 14 4.9V6.3C14 7.0721 13.3721 7.7 12.6 7.7ZM9.8 4.9V6.3H12.6007V4.9H9.8ZM7 7C7 6.6136 6.6864 6.3 6.3 6.3H3.5C3.1136 6.3 2.8 6.6136 2.8 7C2.8 7.3864 3.1136 7.7 3.5 7.7H6.3C6.6864 7.7 7 7.3864 7 7ZM14 9.8C14 9.4136 13.6864 9.1 13.3 9.1H3.5C3.1136 9.1 2.8 9.4136 2.8 9.8C2.8 10.1864 3.1136 10.5 3.5 10.5H13.3C13.6864 10.5 14 10.1864 14 9.8Z" fill="black"/>
</svg>
