<svg width="20" height="19" viewBox="0 0 20 19" fill="none" xmlns="http://www.w3.org/2000/svg">
<path d="M12.9167 11.3476H16.25V12.8606H12.9167V11.3476ZM20 10.5911V18.1561H0V10.5911C0 9.33982 1.12167 8.32157 2.5 8.32157H4.16667V2.26952C4.16667 1.01826 5.28833 0 6.66667 0H13.3333C14.7117 0 15.8333 1.01826 15.8333 2.26952V8.32157H17.5C18.8783 8.32157 20 9.33982 20 10.5911ZM5.83333 8.32157H14.1667V2.26952C14.1667 1.85193 13.7933 1.51301 13.3333 1.51301H6.66667C6.20667 1.51301 5.83333 1.85193 5.83333 2.26952V8.32157ZM1.66667 16.6431H9.16667V9.83458H2.5C2.04 9.83458 1.66667 10.1735 1.66667 10.5911V16.6431ZM18.3333 10.5911C18.3333 10.1735 17.96 9.83458 17.5 9.83458H10.8333V16.6431H18.3333V10.5911ZM3.75 11.3476V12.8606H7.08333V11.3476H3.75ZM8.33333 4.53904H11.6667V3.02602H8.33333V4.53904Z" fill="white"/>
</svg>
