<svg width="16" height="14" viewBox="0 0 16 14" fill="none" xmlns="http://www.w3.org/2000/svg">
<g clip-path="url(#clip0_224_1345)">
<path d="M1.04684 10.7774C1.77711 10.1956 2.41505 10.2632 3.00982 10.6972C3.48947 11.0488 3.88398 10.9171 4.34685 10.6526C5.30615 10.1017 6.58922 10.5712 7.0353 11.5688C7.19359 11.9192 7.0353 11.9559 6.74871 11.9673C6.31942 11.9845 5.99206 11.744 5.6575 11.555C5.32294 11.3661 5.01596 11.2962 4.68021 11.555C3.97872 12.0853 3.26403 12.0704 2.55535 11.5676C2.22918 11.3386 1.94379 11.3466 1.57926 11.5505C0.739864 12.0189 0.00959305 11.6054 0.00719478 10.6766C-0.00239826 7.75154 -0.00239826 4.82686 0.00719478 1.90255C0.00719478 0.788189 0.777037 0.0265735 1.94739 0.020847C5.58675 0.00137712 9.22491 0.00710356 12.8595 0.020847C13.832 0.020847 14.5119 0.492705 14.8896 1.34938C15.1966 2.04457 15.2769 2.77412 15.2493 3.52543C15.241 3.75448 15.1774 3.88848 14.9088 3.86901C14.7697 3.85756 14.6306 3.86901 14.4915 3.86901C13.5034 3.86901 13.4794 3.86901 13.4459 4.83105C13.4315 5.25138 13.1832 5.20556 12.8979 5.21816C12.5753 5.23305 12.3822 5.19297 12.3906 4.80128C12.4146 3.70066 12.3906 2.59774 12.405 1.49712C12.411 1.15354 12.3534 0.996632 11.9254 0.998922C8.62535 1.0161 5.33014 1.00694 2.02293 1.01037C1.40298 1.01037 1.04684 1.26348 1.04444 1.76741C1.04085 4.71194 1.04684 7.6748 1.04684 10.7774ZM13.4435 1.11689C13.4435 1.70671 13.4435 2.1591 13.4435 2.60576C13.4435 2.88063 13.6149 2.90583 13.8344 2.89781C14.0154 2.89094 14.2229 2.91155 14.1941 2.65043C14.1366 2.11443 14.0382 1.58416 13.4435 1.11689Z" fill="black"/>
<path d="M13.2108 12.6359C13.194 12.882 13.1964 13.1289 13.218 13.3746C13.2983 13.8934 13.0705 14.0309 12.5573 13.9942C12.2287 13.9713 12.1604 13.8556 12.1664 13.5796C12.1807 12.9543 12.1556 12.3278 12.176 11.7025C12.1867 11.3795 12.074 11.2661 11.7347 11.2776C11.1591 11.2982 10.5835 11.2776 10.0067 11.2845C9.66737 11.2845 9.36039 11.3452 9.35919 10.8206C9.35919 10.3281 9.59902 10.319 9.97674 10.3304C10.5763 10.3476 11.1687 10.3213 11.7634 10.3396C12.074 10.3499 12.1831 10.2491 12.176 9.95134C12.158 9.30654 12.1927 8.6606 12.1628 8.01695C12.1436 7.59663 12.4026 7.62641 12.694 7.62182C12.9854 7.61724 13.2396 7.62183 13.218 8.02611C13.1892 8.59876 13.2528 9.1714 13.1988 9.73259C13.1496 10.2617 13.3643 10.3797 13.8691 10.3442C14.4423 10.3041 15.0215 10.3556 15.5959 10.3281C15.9808 10.3098 16.006 10.5011 15.9976 10.7863C15.9892 11.0714 16.036 11.3165 15.5911 11.2959C14.9567 11.2661 14.3188 11.3051 13.6845 11.2833C13.3247 11.2707 13.176 11.3772 13.2048 11.7311C13.2324 12.0266 13.2108 12.3324 13.2108 12.6359Z" fill="black"/>
<path d="M6.74389 3.05539C7.79672 3.05539 8.84956 3.06914 9.9024 3.04738C10.2825 3.03936 10.4336 3.13442 10.412 3.52038C10.3928 3.84335 10.3773 4.04378 9.93238 4.04034C7.78673 4.01973 5.64189 4.01973 3.49784 4.04034C3.06735 4.04034 3.01819 3.85939 3.01819 3.52496C3.0074 3.15274 3.1381 3.03822 3.52782 3.04738C4.59625 3.07143 5.66467 3.05539 6.74389 3.05539Z" fill="black"/>
<path d="M6.67319 6.12518C5.60236 6.12518 4.53034 6.10686 3.46072 6.13435C3.04941 6.1458 3.01584 5.96255 3.01824 5.65676C3.02064 5.35097 3.04462 5.15398 3.45472 5.15627C5.63634 5.17001 7.81796 5.17001 9.99958 5.15627C10.4421 5.15627 10.3941 5.40594 10.4025 5.67623C10.4109 5.94652 10.3929 6.14007 10.0044 6.13435C8.89398 6.11144 7.78358 6.12518 6.67319 6.12518Z" fill="black"/>
<path d="M5.59394 7.27603C6.34819 7.27603 7.10244 7.29435 7.8555 7.26916C8.2704 7.25541 8.23442 7.49249 8.22843 7.74445C8.22243 7.99641 8.30277 8.27701 7.84231 8.27128C6.37457 8.25143 4.90644 8.25143 3.4379 8.27128C3.00501 8.27128 3.0266 8.04223 3.0206 7.75934C3.01461 7.47645 3.0302 7.25083 3.45109 7.26801C4.16457 7.29779 4.87926 7.27603 5.59394 7.27603Z" fill="black"/>
</g>
<defs>
<clipPath id="clip0_224_1345">
<rect width="16" height="14" fill="white"/>
</clipPath>
</defs>
</svg>
