<svg width="23" height="22" viewBox="0 0 23 22" fill="none" xmlns="http://www.w3.org/2000/svg">
<path d="M11.4836 3.20415L11.4717 1.82886H10.0964C7.58714 1.82613 5.16694 2.75892 3.30856 4.44504C1.45018 6.13116 0.2871 8.4495 0.046493 10.9472C-0.194115 13.445 0.505034 15.9427 2.00738 17.9526C3.50972 19.9624 5.70736 21.34 8.17103 21.8164C8.79894 21.9372 9.43683 21.9986 10.0763 21.9997C12.7515 21.9951 15.3162 20.9317 17.2098 19.0419C19.1034 17.1521 20.1719 14.5896 20.1819 11.9143V10.539H11.4717L11.4836 3.20415ZM17.2993 13.2896C17.047 14.595 16.444 15.807 15.555 16.7957C14.666 17.7843 13.5246 18.5122 12.2532 18.9012C10.9818 19.2902 9.62852 19.3256 8.33853 19.0037C7.04854 18.6818 5.87056 18.0146 4.93103 17.0739C3.9915 16.1332 3.32589 14.9543 3.00562 13.6639C2.68536 12.3735 2.72254 11.0203 3.11318 9.74942C3.50381 8.47855 4.23315 7.33805 5.22292 6.45032C6.21269 5.56259 7.42551 4.96115 8.73123 4.71055L8.72115 13.2896H17.2993Z" fill="white"/>
<path d="M13.3054 0V8.70556H22.0156C22.0042 6.39941 21.0828 4.191 19.4516 2.56071C17.8205 0.930419 15.6116 0.010123 13.3054 0Z" fill="white"/>
</svg>
