<svg width="16" height="16" viewBox="0 0 16 16" fill="none" xmlns="http://www.w3.org/2000/svg">
<path d="M10 8.66667V12.6667C10 12.8435 10.0702 13.013 10.1953 13.1381C10.3203 13.2631 10.4899 13.3333 10.6667 13.3333C10.8435 13.3333 11.013 13.2631 11.1381 13.1381C11.2631 13.013 11.3333 12.8435 11.3333 12.6667V8.66667C11.3333 8.48986 11.2631 8.32029 11.1381 8.19526C11.013 8.07024 10.8435 8 10.6667 8C10.4899 8 10.3203 8.07024 10.1953 8.19526C10.0702 8.32029 10 8.48986 10 8.66667Z" fill="black"/>
<path d="M13.3335 5.99992V12.6666C13.3335 12.8434 13.4037 13.013 13.5288 13.138C13.6538 13.263 13.8234 13.3333 14.0002 13.3333C14.177 13.3333 14.3465 13.263 14.4716 13.138C14.5966 13.013 14.6668 12.8434 14.6668 12.6666V5.99992C14.6668 5.82311 14.5966 5.65354 14.4716 5.52851C14.3465 5.40349 14.177 5.33325 14.0002 5.33325C13.8234 5.33325 13.6538 5.40349 13.5288 5.52851C13.4037 5.65354 13.3335 5.82311 13.3335 5.99992Z" fill="black"/>
<path d="M15.3333 14.6667H3.33333C2.8029 14.6667 2.29419 14.456 1.91912 14.0809C1.54405 13.7058 1.33333 13.1971 1.33333 12.6667V0.666667C1.33333 0.489856 1.2631 0.320286 1.13807 0.195262C1.01305 0.0702379 0.843478 0 0.666667 0C0.489856 0 0.320286 0.0702379 0.195262 0.195262C0.0702379 0.320286 0 0.489856 0 0.666667L0 12.6667C0.00105857 13.5504 0.352588 14.3976 0.97748 15.0225C1.60237 15.6474 2.4496 15.9989 3.33333 16H15.3333C15.5101 16 15.6797 15.9298 15.8047 15.8047C15.9298 15.6797 16 15.5101 16 15.3333C16 15.1565 15.9298 14.987 15.8047 14.8619C15.6797 14.7369 15.5101 14.6667 15.3333 14.6667Z" fill="black"/>
<path d="M4.00016 13.3333C4.17697 13.3333 4.34654 13.263 4.47157 13.138C4.59659 13.013 4.66683 12.8434 4.66683 12.6666V7.99992C4.66683 7.82311 4.59659 7.65354 4.47157 7.52851C4.34654 7.40349 4.17697 7.33325 4.00016 7.33325C3.82335 7.33325 3.65378 7.40349 3.52876 7.52851C3.40373 7.65354 3.3335 7.82311 3.3335 7.99992V12.6666C3.3335 12.8434 3.40373 13.013 3.52876 13.138C3.65378 13.263 3.82335 13.3333 4.00016 13.3333Z" fill="black"/>
<path d="M6.6665 6.66667V12.6667C6.6665 12.8435 6.73674 13.013 6.86177 13.1381C6.98679 13.2631 7.15636 13.3333 7.33317 13.3333C7.50998 13.3333 7.67955 13.2631 7.80457 13.1381C7.9296 13.013 7.99984 12.8435 7.99984 12.6667V6.66667C7.99984 6.48986 7.9296 6.32029 7.80457 6.19526C7.67955 6.07024 7.50998 6 7.33317 6C7.15636 6 6.98679 6.07024 6.86177 6.19526C6.73674 6.32029 6.6665 6.48986 6.6665 6.66667Z" fill="black"/>
<path d="M4.00002 6.00011C4.17682 6.00007 4.34636 5.92981 4.47135 5.80478L6.86202 3.41411C6.98909 3.29306 7.15786 3.22554 7.33335 3.22554C7.50885 3.22554 7.67762 3.29306 7.80469 3.41411L9.25269 4.86211C9.62774 5.23705 10.1364 5.44768 10.6667 5.44768C11.197 5.44768 11.7056 5.23705 12.0807 4.86211L15.8047 1.13811C15.9261 1.01237 15.9933 0.843972 15.9918 0.669175C15.9903 0.494377 15.9202 0.327168 15.7966 0.203563C15.673 0.0799575 15.5058 0.00984493 15.331 0.00832598C15.1562 0.00680704 14.9878 0.0740033 14.862 0.195442L11.138 3.91878C11.013 4.04376 10.8435 4.11397 10.6667 4.11397C10.4899 4.11397 10.3204 4.04376 10.1954 3.91878L8.74735 2.47144C8.3723 2.0965 7.86368 1.88587 7.33335 1.88587C6.80303 1.88587 6.29441 2.0965 5.91935 2.47144L3.52869 4.86211C3.43548 4.95534 3.37201 5.07412 3.3463 5.20342C3.32059 5.33272 3.33379 5.46675 3.38424 5.58854C3.43468 5.71034 3.52011 5.81445 3.62972 5.88771C3.73932 5.96097 3.86819 6.00008 4.00002 6.00011Z" fill="black"/>
</svg>
