<svg width="22" height="21" viewBox="0 0 22 21" fill="none" xmlns="http://www.w3.org/2000/svg">
<path d="M18.7917 4.58333H5.04167C4.31842 4.58333 3.63917 4.23867 3.20833 3.66758C3.62725 3.11117 4.29367 2.75 5.04167 2.75H20.625C22.4327 2.71883 22.4318 0.03025 20.625 0H5.04167C2.26233 0 0 2.26142 0 5.04167V15.125C0 17.9053 2.26233 20.1667 5.04167 20.1667H18.7917C20.5608 20.1667 22 18.7275 22 16.9583V7.79167C22 6.0225 20.5608 4.58333 18.7917 4.58333ZM19.25 16.9583C19.25 17.2113 19.0438 17.4167 18.7917 17.4167H5.04167C3.77758 17.4167 2.75 16.3882 2.75 15.125V6.77967C3.44942 7.13717 4.23317 7.33333 5.04167 7.33333H18.7917C19.0438 7.33333 19.25 7.53867 19.25 7.79167V16.9583ZM17.4167 12.375C17.3855 14.1827 14.6969 14.1818 14.6667 12.375C14.6978 10.5673 17.3864 10.5683 17.4167 12.375Z" fill="white"/>
</svg>
